<svg xmlns="http://www.w3.org/2000/svg" xmlns:xlink="http://www.w3.org/1999/xlink" width="485" zoomAndPan="magnify" viewBox="0 0 363.75 112.499997" height="150" preserveAspectRatio="xMidYMid meet" version="1.0"><defs><g/><clipPath id="3605a9ddb9"><path d="M 0.679688 0 L 111.9375 0 L 111.9375 112 L 0.679688 112 Z M 0.679688 0 " clip-rule="nonzero"/></clipPath><clipPath id="0b99985435"><path d="M 136 0 L 362.820312 0 L 362.820312 112.003906 L 136 112.003906 Z M 136 0 " clip-rule="nonzero"/></clipPath><clipPath id="2bfc261e3d"><rect x="0" width="227" y="0" height="113"/></clipPath></defs><g clip-path="url(#3605a9ddb9)"><path fill="#ff3131" d="M 0.679688 15.886719 L 46.0625 9.742188 L 46.0625 53.496094 L 0.753906 53.714844 Z M 46.0625 58.527344 L 46.0625 102.355469 L 0.679688 96.136719 L 0.679688 58.230469 Z M 51.539062 8.929688 L 111.726562 0.117188 L 111.726562 52.902344 L 51.539062 53.421875 Z M 111.726562 58.972656 L 111.726562 111.535156 L 51.539062 103.019531 L 51.464844 58.824219 Z M 111.726562 58.972656 " fill-opacity="1" fill-rule="nonzero"/></g><g clip-path="url(#0b99985435)"><g transform="matrix(1, 0, 0, 1, 136, 0)"><g clip-path="url(#2bfc261e3d)"><g fill="#ff3131" fill-opacity="1"><g transform="translate(0.747141, 87.523153)"><g><path d="M 49.921875 0 L 13.1875 -54.6875 C 13.445312 -49.96875 13.578125 -46.179688 13.578125 -43.328125 L 13.578125 0 L 8.078125 0 L 8.078125 -61.546875 L 14.9375 -61.546875 L 51.984375 -6.46875 C 51.660156 -10.570312 51.5 -14.660156 51.5 -18.734375 L 51.5 -61.546875 L 57.09375 -61.546875 L 57.09375 0 Z M 49.921875 0 "/></g></g></g><g fill="#ff3131" fill-opacity="1"><g transform="translate(62.785248, 87.523153)"><g><path d="M 19.3125 -3.71875 C 21.875 -3.71875 24.148438 -4.320312 26.140625 -5.53125 C 28.140625 -6.738281 29.707031 -8.394531 30.84375 -10.5 C 31.976562 -12.613281 32.546875 -14.835938 32.546875 -17.171875 L 32.546875 -22.53125 L 26.15625 -22.359375 C 20.21875 -22.210938 15.988281 -21.3125 13.46875 -19.65625 C 10.957031 -18 9.703125 -15.492188 9.703125 -12.140625 C 9.703125 -6.523438 12.90625 -3.71875 19.3125 -3.71875 Z M 38.09375 0 L 32.796875 0 L 32.546875 -7.90625 L 32.359375 -7.90625 C 29.359375 -2.050781 24.703125 0.875 18.390625 0.875 C 13.753906 0.875 10.175781 -0.265625 7.65625 -2.546875 C 5.144531 -4.835938 3.890625 -8.007812 3.890625 -12.0625 C 3.890625 -16.65625 5.628906 -20.160156 9.109375 -22.578125 C 12.585938 -24.992188 17.953125 -26.304688 25.203125 -26.515625 L 32.5 -26.6875 L 32.5 -28.484375 C 32.5 -32.671875 31.660156 -35.757812 29.984375 -37.75 C 28.304688 -39.75 25.707031 -40.75 22.1875 -40.75 C 18.957031 -40.75 16.519531 -40.234375 14.875 -39.203125 C 13.226562 -38.171875 12.097656 -36.429688 11.484375 -33.984375 L 6.25 -35.078125 C 7.175781 -38.828125 8.941406 -41.472656 11.546875 -43.015625 C 14.160156 -44.566406 17.738281 -45.34375 22.28125 -45.34375 C 27.84375 -45.34375 31.867188 -43.957031 34.359375 -41.1875 C 36.847656 -38.425781 38.09375 -34.03125 38.09375 -28 Z M 38.09375 0 "/></g></g></g><g fill="#ff3131" fill-opacity="1"><g transform="translate(104.468886, 87.523153)"><g><path d="M 7.125 -56.734375 L 7.125 -63.515625 L 12.671875 -63.515625 L 12.671875 -56.734375 Z M 12.671875 7.25 C 12.671875 11.738281 11.910156 14.957031 10.390625 16.90625 C 8.878906 18.851562 6.476562 19.828125 3.1875 19.828125 C 1.46875 19.828125 0.0703125 19.726562 -1 19.53125 L -1 14.9375 C -0.0390625 15.113281 0.84375 15.203125 1.65625 15.203125 C 3.632812 15.203125 5.039062 14.617188 5.875 13.453125 C 6.707031 12.285156 7.125 10.175781 7.125 7.125 L 7.125 -44.46875 L 12.671875 -44.46875 Z M 12.671875 7.25 "/></g></g></g><g fill="#ff3131" fill-opacity="1"><g transform="translate(121.342784, 87.523153)"><g><path d="M 46.953125 -22.28125 C 46.953125 -15.050781 45.066406 -9.382812 41.296875 -5.28125 C 37.523438 -1.175781 32.234375 0.875 25.421875 0.875 C 18.867188 0.875 13.710938 -1.195312 9.953125 -5.34375 C 6.203125 -9.5 4.328125 -15.144531 4.328125 -22.28125 C 4.328125 -29.53125 6.203125 -35.1875 9.953125 -39.25 C 13.710938 -43.3125 18.957031 -45.34375 25.6875 -45.34375 C 32.613281 -45.34375 37.890625 -43.367188 41.515625 -39.421875 C 45.140625 -35.472656 46.953125 -29.757812 46.953125 -22.28125 Z M 41.140625 -22.28125 C 41.140625 -28.394531 39.859375 -33 37.296875 -36.09375 C 34.734375 -39.195312 30.921875 -40.75 25.859375 -40.75 C 20.703125 -40.75 16.789062 -39.160156 14.125 -35.984375 C 11.46875 -32.816406 10.140625 -28.25 10.140625 -22.28125 C 10.140625 -16.394531 11.457031 -11.828125 14.09375 -8.578125 C 16.726562 -5.335938 20.472656 -3.71875 25.328125 -3.71875 C 30.578125 -3.71875 34.523438 -5.285156 37.171875 -8.421875 C 39.816406 -11.566406 41.140625 -16.1875 41.140625 -22.28125 Z M 41.140625 -22.28125 "/></g></g></g><g fill="#ff3131" fill-opacity="1"><g transform="translate(169.490931, 87.523153)"><g><path d="M 7.375 0 L 7.375 -33.453125 C 7.375 -35.816406 7.242188 -39.488281 6.984375 -44.46875 L 12.140625 -44.46875 C 12.460938 -41.257812 12.625 -37.894531 12.625 -34.375 L 12.796875 -34.375 C 14.015625 -38.300781 15.628906 -41.109375 17.640625 -42.796875 C 19.648438 -44.492188 22.242188 -45.34375 25.421875 -45.34375 C 26.640625 -45.34375 27.773438 -45.207031 28.828125 -44.9375 L 28.828125 -39.796875 C 27.722656 -40.054688 26.335938 -40.1875 24.671875 -40.1875 C 21.003906 -40.1875 18.132812 -38.617188 16.0625 -35.484375 C 14 -32.359375 12.96875 -28.054688 12.96875 -22.578125 L 12.96875 0 Z M 7.375 0 "/></g></g></g><g fill="#ff3131" fill-opacity="1"><g transform="translate(199.25028, 87.523153)"><g><path d="M 18.4375 0.703125 C 15.195312 0.703125 12.738281 -0.15625 11.0625 -1.875 C 9.394531 -3.59375 8.5625 -6.128906 8.5625 -9.484375 L 8.5625 -39.875 L 2.015625 -39.875 L 2.015625 -44.46875 L 8.640625 -44.46875 L 10.140625 -54.734375 L 14.15625 -54.734375 L 14.15625 -44.46875 L 25.984375 -44.46875 L 25.984375 -39.875 L 14.15625 -39.875 L 14.15625 -10.484375 C 14.15625 -8.390625 14.578125 -6.757812 15.421875 -5.59375 C 16.265625 -4.425781 17.78125 -3.84375 19.96875 -3.84375 C 21.851562 -3.84375 24.035156 -4.101562 26.515625 -4.625 L 26.515625 -0.3125 C 23.984375 0.363281 21.289062 0.703125 18.4375 0.703125 Z M 18.4375 0.703125 "/></g></g></g></g></g></g></svg>